<?xml version="1.0" encoding="UTF-8" standalone="no"?>
<!-- Created with Inkscape (http://www.inkscape.org/) -->

<svg
   width="201.93256mm"
   height="60.003063mm"
   viewBox="0 0 201.93256 60.003063"
   version="1.1"
   id="svg1"
   xml:space="preserve"
   inkscape:version="1.4 (86a8ad7, 2024-10-11)"
   sodipodi:docname="tap_coupon_logo_transparent.svg"
   inkscape:export-filename="tap_coupon_logo_transparent.png"
   inkscape:export-xdpi="250"
   inkscape:export-ydpi="250"
   xmlns:inkscape="http://www.inkscape.org/namespaces/inkscape"
   xmlns:sodipodi="http://sodipodi.sourceforge.net/DTD/sodipodi-0.dtd"
   xmlns="http://www.w3.org/2000/svg"
   xmlns:svg="http://www.w3.org/2000/svg"><sodipodi:namedview
     id="namedview1"
     pagecolor="#000000"
     bordercolor="#000000"
     borderopacity="0.25"
     inkscape:showpageshadow="2"
     inkscape:pageopacity="0.0"
     inkscape:pagecheckerboard="0"
     inkscape:deskcolor="#d1d1d1"
     inkscape:document-units="mm"
     inkscape:zoom="0.9259944"
     inkscape:cx="301.83768"
     inkscape:cy="201.40511"
     inkscape:window-width="1920"
     inkscape:window-height="974"
     inkscape:window-x="-11"
     inkscape:window-y="-11"
     inkscape:window-maximized="1"
     inkscape:current-layer="layer1" /><defs
     id="defs1" /><g
     inkscape:label="Ebene 1"
     inkscape:groupmode="layer"
     id="layer1"
     transform="translate(-0.1673761,-0.1673761)"><path
       id="rect1"
       style="fill:#ffffff;fill-opacity:0.998285;stroke-width:1.47783"
       d="m 23.116419,13.558861 c -6.334324,0 -11.433411,5.099602 -11.433411,11.433927 v 12.085051 c 0,6.334325 5.099087,11.433927 11.433411,11.433927 h 25.040849 c 6.334324,0 11.433927,-5.099602 11.433927,-11.433927 V 24.992788 c 0,-6.334325 -5.099603,-11.433927 -11.433927,-11.433927 h -5.423442 a 2.6745,2.6745 0 0 1 -0.130741,0.309025 2.6745,2.6745 0 0 1 -3.591512,1.185457 c -3.774919,-1.900845 -7.195427,0.04858 -7.195427,0.04858 a 2.6745,2.6745 0 0 1 -3.644738,-1.013375 2.6745,2.6745 0 0 1 -0.223242,-0.529683 z m 23.690027,7.094657 c 0.819987,0 1.589949,0.0748 2.309937,0.224793 0.729988,0.139998 1.409679,0.339968 2.039668,0.599963 0.62999,0.249996 1.209954,0.555196 1.739946,0.91519 0.529991,0.349994 1.000256,0.739962 1.41025,1.169954 l -1.709974,2.294951 c -0.109998,0.139998 -0.240159,0.270159 -0.390157,0.390157 -0.149998,0.109998 -0.35994,0.164848 -0.629935,0.164848 -0.179997,0 -0.350049,-0.03989 -0.510047,-0.11989 -0.159997,-0.08 -0.330049,-0.175256 -0.510046,-0.285254 -0.179997,-0.119998 -0.379967,-0.244656 -0.599963,-0.374654 -0.209997,-0.139998 -0.464817,-0.265173 -0.764812,-0.375171 -0.289995,-0.119998 -0.635085,-0.220241 -1.035079,-0.30024 -0.389993,-0.08 -0.849769,-0.119889 -1.37976,-0.119889 -0.919985,0 -1.760273,0.165065 -2.52026,0.49506 -0.759987,0.319995 -1.414747,0.785274 -1.964738,1.395264 -0.539991,0.59999 -0.964863,1.329545 -1.274857,2.18953 -0.299996,0.859986 -0.450102,1.825449 -0.450102,2.895431 0,1.119981 0.150106,2.114845 0.450102,2.98483 0.309994,0.869986 0.724893,1.605044 1.244885,2.205034 0.529991,0.58999 1.14486,1.039794 1.844848,1.349788 0.699989,0.309995 1.450006,0.465088 2.249992,0.465088 0.459992,0 0.879878,-0.01994 1.259872,-0.05994 0.379993,-0.05 0.73007,-0.130298 1.050065,-0.240295 0.329994,-0.109998 0.64018,-0.249615 0.930176,-0.419613 0.299995,-0.179996 0.599692,-0.400428 0.899686,-0.660424 0.119998,-0.1 0.250159,-0.17978 0.390157,-0.239779 0.139998,-0.07 0.285119,-0.104903 0.435116,-0.104903 0.119998,0 0.23967,0.02493 0.359668,0.07493 0.119998,0.04 0.2352,0.114795 0.345198,0.224792 l 2.009697,2.115116 c -0.879985,1.149981 -1.984549,2.020187 -3.314527,2.610177 -1.319978,0.579991 -2.88535,0.869714 -4.69532,0.869714 -1.659972,0 -3.149517,-0.279751 -4.469495,-0.839742 -1.309978,-0.56999 -2.425031,-1.349925 -3.345015,-2.339908 -0.909986,-0.999984 -1.610139,-2.180376 -2.10013,-3.540353 -0.489992,-1.369977 -0.734839,-2.854535 -0.734839,-4.454508 0,-1.629973 0.279751,-3.125021 0.839742,-4.484998 0.55999,-1.369977 1.339925,-2.550369 2.339909,-3.540352 1.009983,-0.989984 2.215306,-1.759946 3.615283,-2.309937 1.399976,-0.54999 2.944888,-0.824756 4.634859,-0.824756 z m -28.739848,0.239779 h 17.369999 v 4.01991 H 29.286585 V 42.748294 H 24.21661 V 24.913207 h -6.150012 z" /><path
       style="fill:none;fill-opacity:0.595197;stroke:#ffffff;stroke-width:1.949;stroke-linecap:round;stroke-dasharray:none;stroke-opacity:1"
       d="m 30.381258,12.884098 c 0,0 4.678811,-2.642989 9.714782,-0.107144"
       id="path1"
       sodipodi:nodetypes="cc" /><path
       style="fill:none;fill-opacity:0.595197;stroke:#ffffff;stroke-width:1.949;stroke-linecap:round;stroke-dasharray:none;stroke-opacity:1"
       d="m 27.345411,10.50324 c 0,0 7.143222,-6.3217472 15.750804,-0.107144"
       id="path1-4"
       sodipodi:nodetypes="cc" /><path
       style="fill:none;fill-opacity:0.595197;stroke:#ffffff;stroke-width:1.949;stroke-linecap:round;stroke-dasharray:none;stroke-opacity:1"
       d="m 24.998456,7.2851878 c 0,0 9.17904,-8.286134 20.251034,-0.178576"
       id="path1-4-7"
       sodipodi:nodetypes="cc" /><text
       xml:space="preserve"
       style="font-weight:bold;font-size:20.5909px;line-height:1.25;font-family:sans-serif;-inkscape-font-specification:'sans-serif Bold';text-align:start;writing-mode:lr-tb;direction:ltr;text-anchor:start;fill:#ffffff;fill-opacity:1;stroke:none;stroke-width:34.6901;stroke-linecap:round;stroke-opacity:0.493997"
       x="63.324848"
       y="39.168194"
       id="text1"><tspan
         sodipodi:role="line"
         id="tspan1"
         style="font-style:normal;font-variant:normal;font-weight:bold;font-stretch:normal;font-family:Lato;-inkscape-font-specification:'Lato Bold';fill:#ffffff;fill-opacity:1;stroke:none;stroke-width:34.6901"
         x="63.324848"
         y="39.168194">TAPCOUPON</tspan></text></g></svg>
